<svg width="250" height="250" viewBox="0 0 250 250" fill="none" xmlns="http://www.w3.org/2000/svg">
<g clip-path="url(#clip0)">
<path d="M249.866 167.317H154.196V111.942H249.866V167.317ZM154.78 166.733H249.282V112.526H154.78V166.733Z" fill="#E0E0E0"/>
<path d="M230.131 141.468H166.998V143.32H230.131V141.468Z" fill="#F0F0F0"/>
<path d="M234.479 148.37H166.998V150.39H234.479V148.37Z" fill="#F0F0F0"/>
<path d="M234.479 155.352H166.998V157.373H234.479V155.352Z" fill="#F0F0F0"/>
<path d="M189.063 131.443H166.998V136.248H189.063V131.443Z" fill="#F0F0F0"/>
<path d="M249.574 112.234H154.488V121.049H249.574V112.234Z" fill="#E0E0E0"/>
<path d="M244.986 116.428C243.353 118.134 242.128 119.612 242.249 119.728C242.371 119.845 243.793 118.555 245.426 116.849C247.058 115.142 248.284 113.664 248.162 113.548C248.04 113.432 246.618 114.721 244.986 116.428Z" fill="white"/>
<path d="M245.001 116.856C246.634 118.562 248.056 119.852 248.177 119.736C248.299 119.62 247.074 118.142 245.441 116.435C243.808 114.729 242.386 113.439 242.265 113.555C242.143 113.671 243.369 115.149 245.001 116.856Z" fill="white"/>
<path d="M132.128 2.58752H37.0417V57.378H132.128V2.58752Z" fill="#E6E6E6"/>
<path d="M112.685 31.8206H49.5522V33.6726H112.685V31.8206Z" fill="#F0F0F0"/>
<path d="M117.034 38.723H49.5522V40.7435H117.034V38.723Z" fill="#F0F0F0"/>
<path d="M117.034 45.7051H49.5522V47.7256H117.034V45.7051Z" fill="#F0F0F0"/>
<path d="M71.6162 21.7965H49.5522V26.601H71.6162V21.7965Z" fill="#F0F0F0"/>
<path d="M132.128 2.58752H37.0417V11.4025H132.128V2.58752Z" fill="#E0E0E0"/>
<path d="M127.215 6.74033C125.582 8.447 124.357 9.92461 124.478 10.0407C124.6 10.1567 126.022 8.86731 127.654 7.16064C129.287 5.45397 130.512 3.97634 130.391 3.86028C130.27 3.74421 128.848 5.03366 127.215 6.74033Z" fill="white"/>
<path d="M127.228 7.16164C128.861 8.86831 130.283 10.1577 130.404 10.0417C130.525 9.92561 129.3 8.448 127.667 6.74133C126.034 5.03466 124.612 3.74521 124.491 3.86128C124.37 3.97734 125.595 5.45497 127.228 7.16164Z" fill="white"/>
<path d="M96.1148 104.371H0.445251V48.9971H96.1148V104.371ZM1.02875 103.788H95.5308V49.5806H1.02875V103.788Z" fill="#E0E0E0"/>
<path d="M76.3808 78.5221H13.2473V80.3741H76.3808V78.5221Z" fill="#F0F0F0"/>
<path d="M80.7288 85.4246H13.2473V87.4446H80.7288V85.4246Z" fill="#F0F0F0"/>
<path d="M80.7288 92.4066H13.2473V94.4266H80.7288V92.4066Z" fill="#F0F0F0"/>
<path d="M35.3118 68.498H13.2473V73.303H35.3118V68.498Z" fill="#F0F0F0"/>
<path d="M95.8232 49.2886H0.737244V58.1036H95.8232V49.2886Z" fill="#E0E0E0"/>
<path d="M206.526 117.061H94.2513V217.572H206.526V117.061Z" fill="#E6E6E6"/>
<path d="M99.8953 85.3975H11.9468V176.773H99.8953V85.3975Z" fill="#F0F0F0"/>
<path d="M99.8953 85.3975H11.9468V95.3535H99.8953V85.3975Z" fill="#E0E0E0"/>
<path d="M17.3633 92.2035C18.3831 92.2035 19.2098 91.3394 19.2098 90.2735C19.2098 89.2076 18.3831 88.3435 17.3633 88.3435C16.3435 88.3435 15.5168 89.2076 15.5168 90.2735C15.5168 91.3394 16.3435 92.2035 17.3633 92.2035Z" fill="white"/>
<path d="M24.8533 92.2035C25.8731 92.2035 26.6998 91.3394 26.6998 90.2735C26.6998 89.2076 25.8731 88.3435 24.8533 88.3435C23.8335 88.3435 23.0068 89.2076 23.0068 90.2735C23.0068 91.3394 23.8335 92.2035 24.8533 92.2035Z" fill="white"/>
<path d="M32.3433 92.2035C33.3631 92.2035 34.1898 91.3394 34.1898 90.2735C34.1898 89.2076 33.3631 88.3435 32.3433 88.3435C31.3235 88.3435 30.4968 89.2076 30.4968 90.2735C30.4968 91.3394 31.3235 92.2035 32.3433 92.2035Z" fill="white"/>
<path d="M237.311 22.5725H125.036V134.471H237.311V22.5725Z" fill="#F0F0F0"/>
<path d="M237.311 22.5725H125.036V35.6795H237.311V22.5725Z" fill="#E0E0E0"/>
<path d="M132.167 31.5326C133.509 31.5326 134.598 30.3949 134.598 28.9916C134.598 27.5882 133.509 26.4506 132.167 26.4506C130.824 26.4506 129.736 27.5882 129.736 28.9916C129.736 30.3949 130.824 31.5326 132.167 31.5326Z" fill="white"/>
<path d="M143.819 30.7839C144.769 29.8346 144.734 28.2606 143.742 27.2682C142.749 26.2759 141.175 26.2411 140.226 27.1905C139.277 28.1398 139.311 29.7139 140.304 30.7062C141.296 31.6985 142.87 31.7333 143.819 30.7839Z" fill="white"/>
<path d="M151.888 31.5326C153.23 31.5326 154.319 30.3949 154.319 28.9916C154.319 27.5882 153.23 26.4506 151.888 26.4506C150.545 26.4506 149.457 27.5882 149.457 28.9916C149.457 30.3949 150.545 31.5326 151.888 31.5326Z" fill="white"/>
<path d="M213.057 247.261C213.057 247.345 172.515 247.413 122.517 247.413C72.5013 247.413 31.9688 247.344 31.9688 247.261C31.9688 247.177 72.5013 247.108 122.517 247.108C172.515 247.109 213.057 247.177 213.057 247.261Z" fill="#263238"/>
<path d="M173.552 175.788C164.533 169.486 162.487 157.79 162.844 147.277C162.903 145.522 162.71 143.672 163.545 142.132C164.381 140.592 166.328 139.54 167.9 140.279C169.203 140.893 169.771 142.409 170.5 143.663C171.47 145.331 172.915 146.711 174.616 147.594C175.734 148.174 177.116 148.528 178.22 147.92C179.734 147.084 179.912 144.993 179.901 143.247C179.881 139.994 179.861 136.741 179.84 133.488C179.829 131.742 179.824 129.96 180.367 128.304C180.91 126.647 182.11 125.108 183.77 124.643C185.431 124.178 187.484 125.136 187.834 126.844C187.98 127.555 187.835 128.293 187.884 129.018C187.932 129.742 188.27 130.544 188.958 130.746C189.654 130.95 190.353 130.456 190.875 129.945C192.676 128.182 193.899 125.912 195.041 123.654C196.184 121.396 197.293 119.085 198.927 117.163C200.562 115.24 202.823 113.717 205.323 113.576C207.823 113.434 210.486 114.977 211.118 117.431C211.751 119.892 210.316 122.389 208.753 124.381C206.436 127.336 203.694 129.95 200.641 132.113C200.091 132.504 199.495 132.926 199.284 133.572C198.905 134.736 200.008 135.892 201.157 136.274C202.458 136.708 203.87 136.572 205.23 136.733C206.591 136.893 208.066 137.493 208.58 138.78C209.295 140.564 207.803 142.434 206.335 143.659C203.395 146.112 200.038 148.049 196.457 149.361C195.173 149.831 193.821 150.243 192.786 151.145C191.751 152.047 191.126 153.616 191.751 154.845C192.377 156.076 193.983 156.47 195.328 156.22C196.672 155.971 197.876 155.24 199.158 154.757C201.557 153.851 204.655 154.017 206.191 156.09C207.201 157.452 207.29 159.35 206.779 160.974C206.269 162.599 205.233 163.998 204.133 165.288C200.289 169.799 195.367 173.43 189.802 175.359C184.238 177.288 179.082 177.81 173.552 175.788Z" fill="#71B219"/>
<path d="M208.596 115.036C208.6 115.041 208.542 115.097 208.426 115.202C208.297 115.317 208.126 115.47 207.908 115.664C207.45 116.068 206.777 116.665 205.929 117.456C204.233 119.033 201.85 121.405 199.262 124.652C197.963 126.27 196.614 128.101 195.2 130.094C193.79 132.09 192.297 134.232 190.812 136.543C189.327 138.852 187.84 141.328 186.505 144.003C185.832 145.337 185.233 146.733 184.62 148.157C184.011 149.58 183.394 151.024 182.768 152.485C180.288 158.338 178.107 163.997 176.548 169.282C174.98 174.563 174.047 179.457 173.639 183.605C173.22 187.754 173.306 191.14 173.475 193.464C173.566 194.626 173.655 195.528 173.738 196.136C173.771 196.428 173.798 196.658 173.818 196.83C173.835 196.987 173.84 197.068 173.835 197.069C173.83 197.07 173.813 196.991 173.786 196.835C173.758 196.664 173.721 196.436 173.673 196.145C173.571 195.539 173.461 194.638 173.351 193.475C173.143 191.149 173.022 187.75 173.413 183.583C173.794 179.418 174.708 174.5 176.265 169.198C177.813 163.892 179.991 158.217 182.474 152.359C183.1 150.897 183.718 149.452 184.328 148.028C184.94 146.609 185.546 145.2 186.225 143.86C187.57 141.172 189.069 138.691 190.565 136.38C192.06 134.067 193.564 131.927 194.984 129.937C196.409 127.948 197.772 126.12 199.086 124.507C201.704 121.269 204.121 118.913 205.845 117.363C206.706 116.584 207.394 116.003 207.865 115.615C208.092 115.431 208.27 115.286 208.404 115.177C208.528 115.08 208.592 115.032 208.596 115.036Z" fill="#263238"/>
<path d="M186.318 143.847C186.296 143.85 186.237 143.585 186.147 143.102C186.055 142.62 185.946 141.918 185.823 141.049C185.576 139.311 185.318 136.899 185.042 134.239C184.767 131.578 184.474 129.177 184.202 127.448C184.068 126.583 183.953 125.884 183.867 125.401C183.783 124.918 183.748 124.649 183.769 124.643C183.791 124.638 183.868 124.899 183.989 125.375C184.113 125.85 184.262 126.545 184.425 127.408C184.756 129.133 185.086 131.54 185.361 134.204C185.626 136.829 185.865 139.205 186.048 141.019C186.136 141.839 186.211 142.529 186.271 143.083C186.322 143.571 186.34 143.843 186.318 143.847Z" fill="#263238"/>
<path d="M208.759 139.653C208.759 139.675 208.44 139.712 207.864 139.76C207.288 139.811 206.454 139.881 205.427 140C203.372 140.222 200.543 140.627 197.442 141.212C194.341 141.802 191.558 142.455 189.558 142.986C188.556 143.245 187.751 143.475 187.193 143.632C186.636 143.79 186.325 143.868 186.317 143.847C186.31 143.825 186.609 143.707 187.156 143.511C187.703 143.317 188.501 143.052 189.498 142.764C191.488 142.175 194.273 141.484 197.383 140.892C200.493 140.306 203.338 139.934 205.405 139.771C206.438 139.681 207.277 139.645 207.857 139.633C208.437 139.625 208.758 139.63 208.759 139.653Z" fill="#263238"/>
<path d="M176.542 168.784C176.532 168.788 176.48 168.694 176.388 168.51C176.284 168.291 176.158 168.023 176.004 167.698C175.674 166.992 175.223 165.957 174.683 164.671C173.6 162.1 172.216 158.502 170.743 154.511C169.268 150.518 167.92 146.912 166.893 144.323C166.389 143.064 165.975 142.028 165.667 141.259C165.535 140.925 165.427 140.649 165.338 140.423C165.266 140.231 165.233 140.127 165.243 140.122C165.254 140.118 165.306 140.212 165.397 140.397C165.501 140.616 165.628 140.884 165.781 141.208C166.111 141.915 166.562 142.949 167.102 144.235C168.185 146.806 169.569 150.404 171.043 154.397C172.517 158.389 173.865 161.995 174.892 164.585C175.396 165.843 175.81 166.879 176.118 167.648C176.25 167.982 176.358 168.258 176.447 168.484C176.519 168.676 176.553 168.779 176.542 168.784Z" fill="#263238"/>
<path d="M206.363 159.173C206.366 159.184 206.264 159.226 206.067 159.295C205.834 159.373 205.548 159.469 205.201 159.585C204.401 159.845 203.321 160.195 202.008 160.62C199.312 161.495 195.602 162.745 191.504 164.132C187.405 165.521 183.68 166.738 180.964 167.557C179.607 167.967 178.505 168.287 177.739 168.493C177.385 168.586 177.093 168.662 176.856 168.725C176.653 168.774 176.545 168.795 176.542 168.784C176.539 168.773 176.641 168.732 176.838 168.662C177.071 168.584 177.357 168.488 177.704 168.372C178.504 168.113 179.583 167.763 180.897 167.337C183.594 166.463 187.304 165.212 191.403 163.825C195.5 162.437 199.225 161.22 201.94 160.401C203.298 159.991 204.399 159.671 205.166 159.465C205.52 159.372 205.811 159.295 206.049 159.233C206.252 159.183 206.36 159.162 206.363 159.173Z" fill="#263238"/>
<path d="M194.198 17.548L191.189 18.624L189.902 14.695C187.53 7.44852 179.957 3.57152 173.031 6.04902C166.1 8.52802 162.396 16.4395 164.768 23.686L166.055 27.615L163.036 28.6945C160.689 29.5345 159.419 32.2395 160.223 34.696L168.593 60.2625C169.409 62.756 172.001 64.0855 174.347 63.246L205.509 52.099C207.894 51.246 209.166 48.534 208.349 46.041L199.979 20.4745C199.175 18.018 196.583 16.6945 194.198 17.548ZM170.447 21.655C169.147 17.6835 171.176 13.347 174.975 11.988C178.771 10.63 182.919 12.757 184.219 16.728L185.506 20.657L171.733 25.5835L170.447 21.655ZM187.967 44.3385L190.105 50.8675C190.195 51.1435 190.037 51.4255 189.77 51.521L186.78 52.5905C186.551 52.6725 186.258 52.5515 186.168 52.275L184.031 45.746C181.715 45.648 179.565 44.113 178.76 41.657C177.727 38.499 179.344 35.0465 182.374 33.962C185.404 32.8785 188.704 34.572 189.738 37.73C190.542 40.187 189.743 42.7775 187.967 44.3385Z" fill="#71B219"/>
<path d="M191.058 18.5536C191.086 18.6326 185.482 20.7306 178.542 23.2391C171.6 25.7486 165.95 27.7181 165.921 27.6391C165.893 27.5601 171.496 25.4626 178.438 22.9531C185.379 20.4451 191.029 18.4746 191.058 18.5536Z" fill="#263238"/>
<path d="M197.675 19.6296C197.68 19.6276 197.703 19.6796 197.743 19.7826C197.787 19.9016 197.843 20.0526 197.913 20.2401C198.063 20.6656 198.271 21.2576 198.536 22.0096C199.073 23.5726 199.836 25.7966 200.776 28.5361C201.714 31.3016 202.827 34.5841 204.061 38.2276C204.671 40.0571 205.338 41.9571 205.977 43.9646C206.272 44.9731 206.517 46.0516 206.415 47.1686C206.363 47.7226 206.212 48.2806 205.942 48.7846C205.667 49.2856 205.284 49.7261 204.839 50.0851C203.941 50.8031 202.891 51.2216 201.876 51.5981C200.857 51.9641 199.852 52.3246 198.866 52.6791C196.892 53.3851 194.989 54.0666 193.175 54.7161C189.551 56.0066 186.285 57.1696 183.534 58.1491C180.802 59.1101 178.584 59.8901 177.025 60.4386C176.271 60.6971 175.677 60.9001 175.25 61.0466C175.06 61.1086 174.907 61.1581 174.786 61.1976C174.681 61.2301 174.626 61.2441 174.624 61.2391C174.622 61.2341 174.674 61.2101 174.775 61.1686C174.894 61.1216 175.043 61.0626 175.229 60.9891C175.652 60.8301 176.239 60.6086 176.985 60.3276C178.536 59.7576 180.743 58.9466 183.461 57.9471C186.205 56.9501 189.464 55.7666 193.08 54.4531C194.892 53.7981 196.794 53.1111 198.765 52.3996C199.751 52.0441 200.753 51.6821 201.771 51.3151C202.778 50.9421 203.8 50.5281 204.647 49.8496C205.067 49.5111 205.421 49.1026 205.675 48.6411C205.924 48.1766 206.064 47.6621 206.114 47.1406C206.212 46.0916 205.981 45.0431 205.691 44.0496C205.062 42.0621 204.396 40.1446 203.795 38.3176C202.584 34.6666 201.492 31.3766 200.572 28.6051C199.67 25.8531 198.938 23.6186 198.423 22.0486C198.181 21.2886 197.991 20.6906 197.854 20.2611C197.796 20.0691 197.749 19.9156 197.713 19.7936C197.683 19.6861 197.67 19.6311 197.675 19.6296Z" fill="#263238"/>
<path d="M181.237 11.578C181.222 11.6035 180.927 11.421 180.354 11.19C179.778 10.97 178.908 10.714 177.805 10.679C176.709 10.6385 175.376 10.808 174.045 11.3895C172.719 11.964 171.412 12.984 170.476 14.3715C169.522 15.754 169.105 17.354 169.104 18.805C169.092 20.262 169.401 21.5605 169.698 22.6255C170.006 23.6915 170.321 24.5375 170.528 25.125C170.738 25.712 170.85 26.0385 170.83 26.047C170.811 26.054 170.661 25.743 170.417 25.168C170.176 24.5925 169.83 23.7565 169.492 22.687C169.165 21.619 168.826 20.305 168.823 18.8035C168.807 17.3105 169.234 15.6325 170.223 14.201C171.194 12.7625 172.553 11.7135 173.933 11.1325C175.317 10.5455 176.692 10.3955 177.815 10.464C178.945 10.528 179.829 10.8235 180.399 11.081C180.682 11.2195 180.898 11.3325 181.034 11.428C181.174 11.518 181.243 11.569 181.237 11.578Z" fill="#263238"/>
<path d="M181.503 34.424C181.499 34.4165 181.6 34.3665 181.799 34.2765C181.995 34.1845 182.296 34.0675 182.7 33.9525C183.099 33.827 183.612 33.736 184.217 33.7005C184.82 33.6705 185.53 33.733 186.265 34.006C187.756 34.5305 189.131 36.0555 189.807 38.076C190.131 39.0965 190.16 40.2815 189.834 41.428C189.486 42.569 188.847 43.664 187.925 44.5845L187.963 44.4295C188.738 46.5575 189.583 48.8735 190.462 51.283L190.515 51.4295L190.367 51.479C189.944 51.6205 189.49 51.773 189.033 51.9265C188.049 52.256 187.079 52.5805 186.128 52.899L185.984 52.947L185.937 52.803C185.137 50.382 184.26 48.1005 183.624 45.9185L183.75 46.018C182.555 45.938 181.481 45.4365 180.626 44.7825C179.767 44.122 179.109 43.3025 178.665 42.44C178.229 41.575 178.009 40.6565 178.046 39.81C178.068 38.9645 178.263 38.1995 178.536 37.554C179.081 36.2525 179.893 35.434 180.494 34.987C181.105 34.54 181.503 34.424 181.503 34.424C181.517 34.45 181.132 34.597 180.548 35.0585C179.975 35.52 179.201 36.3395 178.692 37.618C178.183 38.866 177.962 40.659 178.872 42.333C179.308 43.16 179.95 43.947 180.782 44.5765C181.609 45.2 182.641 45.67 183.765 45.739L183.863 45.745L183.891 45.838C184.534 48.0045 185.416 50.277 186.223 52.7075L186.031 52.6115C186.982 52.2925 187.952 51.967 188.936 51.637C189.393 51.484 189.847 51.3315 190.27 51.19L190.176 51.3855C189.303 48.974 188.464 46.6555 187.693 44.526L187.662 44.44L187.731 44.3715C188.605 43.5075 189.241 42.4375 189.576 41.3515C189.895 40.2555 189.876 39.1295 189.574 38.1465C188.936 36.185 187.624 34.694 186.201 34.171C185.498 33.8965 184.811 33.822 184.22 33.8375C183.628 33.8585 183.122 33.9335 182.723 34.0435C181.921 34.2495 181.513 34.4495 181.503 34.424Z" fill="#263238"/>
<path d="M163.459 202.998L105.144 202.728C98.1307 202.696 92.4707 196.986 92.5002 189.972L93.1182 43.7769C93.1477 36.7594 98.8617 31.0954 105.88 31.1279L164.194 31.3974C171.208 31.4299 176.868 37.1404 176.838 44.1539L176.22 190.349C176.191 197.366 170.476 203.03 163.459 202.998Z" fill="#455A64"/>
<path d="M164.111 36.4424L152.805 36.3904C151.289 36.3834 150.054 37.6629 150.048 39.2479L150.039 41.2989C150.032 42.8839 148.798 44.1634 147.282 44.1564L125.244 44.0544C123.728 44.0474 122.504 42.7569 122.51 41.1719L122.519 39.1209C122.526 37.5359 121.302 36.2449 119.786 36.2384L115.809 36.2199L105.914 36.1744C100.999 36.1519 96.9972 40.1184 96.9767 45.0334L96.3737 187.73C96.3527 192.643 100.317 196.642 105.229 196.665L163.427 196.933C168.341 196.956 172.343 192.989 172.364 188.075L172.967 45.3769C172.987 40.4644 169.023 36.4654 164.111 36.4424Z" fill="white"/>
<path d="M156.279 177.897L113.002 177.697C112.554 177.695 112.193 177.208 112.196 176.608L112.244 165.286C112.246 164.686 112.611 164.202 113.06 164.204L156.336 164.404C156.784 164.407 157.145 164.894 157.142 165.494L157.094 176.815C157.093 177.414 156.727 177.899 156.279 177.897Z" fill="#71B219"/>
<path d="M127.674 170.836C127.351 170.835 127.086 170.9 126.877 171.031C126.668 171.163 126.562 171.365 126.561 171.637C126.56 171.902 126.664 172.108 126.872 172.254C127.079 172.394 127.521 172.548 128.196 172.715C128.878 172.883 129.389 173.116 129.729 173.414C130.075 173.713 130.247 174.153 130.245 174.734C130.242 175.309 130.022 175.775 129.585 176.134C129.147 176.492 128.575 176.669 127.867 176.666C126.831 176.661 125.913 176.3 125.114 175.582L125.818 174.742C126.486 175.326 127.18 175.62 127.9 175.624C128.26 175.625 128.545 175.551 128.754 175.4C128.969 175.243 129.078 175.038 129.079 174.785C129.08 174.526 128.98 174.327 128.778 174.187C128.583 174.041 128.242 173.91 127.756 173.794C127.27 173.671 126.901 173.562 126.648 173.466C126.396 173.364 126.172 173.233 125.977 173.075C125.587 172.776 125.393 172.32 125.395 171.707C125.398 171.094 125.621 170.624 126.065 170.298C126.515 169.965 127.068 169.8 127.725 169.803C128.149 169.805 128.569 169.877 128.985 170.018C129.401 170.158 129.761 170.356 130.063 170.61L129.462 171.451C129.267 171.273 129.002 171.127 128.668 171.011C128.334 170.896 128.002 170.838 127.674 170.836ZM131.647 169.982L132.766 169.988L132.738 176.613L131.62 176.607L131.647 169.982ZM139.566 170.019L140.685 170.024L140.657 176.649L139.444 176.643L135.711 171.792L135.691 176.626L134.572 176.621L134.6 169.996L135.718 170.001L139.546 174.966L139.566 170.019ZM130.2 185.378L131.318 185.384L131.309 187.649C130.68 188.335 129.785 188.675 128.622 188.67C127.643 188.665 126.823 188.339 126.162 187.691C125.508 187.044 125.183 186.227 125.187 185.242C125.191 184.256 125.529 183.436 126.202 182.782C126.881 182.128 127.697 181.803 128.651 181.808C129.605 181.812 130.397 182.094 131.027 182.653L130.426 183.503C130.168 183.281 129.906 183.128 129.641 183.044C129.382 182.955 129.079 182.909 128.732 182.907C128.062 182.904 127.499 183.12 127.042 183.554C126.585 183.981 126.355 184.549 126.352 185.257C126.35 185.958 126.568 186.524 127.009 186.956C127.449 187.381 127.982 187.596 128.608 187.598C129.24 187.601 129.768 187.468 130.192 187.198L130.2 185.378ZM127.043 199.07C127.345 199.425 127.755 199.604 128.273 199.607C128.791 199.609 129.203 199.434 129.507 199.081C129.812 198.729 129.966 198.249 129.968 197.643L129.984 193.975L131.102 193.98L131.087 197.695C131.083 198.65 130.817 199.384 130.291 199.9C129.764 200.41 129.09 200.662 128.269 200.659C127.447 200.655 126.775 200.396 126.253 199.882C125.731 199.361 125.472 198.624 125.476 197.67L125.491 193.954L126.61 193.959L126.594 197.627C126.592 198.234 126.741 198.715 127.043 199.07ZM135.126 193.999C136.131 194.003 136.863 194.199 137.323 194.587C137.782 194.974 138.011 195.569 138.007 196.372C138.004 197.174 137.764 197.761 137.289 198.132C136.82 198.502 136.099 198.685 135.126 198.681L133.95 198.675L133.942 200.618L132.824 200.613L132.852 193.988L135.126 193.999ZM135.253 197.667C135.872 197.67 136.293 197.555 136.515 197.322C136.744 197.083 136.859 196.736 136.861 196.281C136.863 195.82 136.722 195.494 136.438 195.303C136.155 195.112 135.71 195.015 135.103 195.013L133.966 195.007L133.955 197.661L135.253 197.667Z" fill="#E8E8E3"/>
<path d="M121.627 78.3775L106.612 78.3085L106.599 81.0635L121.614 81.1325L121.627 78.3775Z" fill="#71B219"/>
<path opacity="0.1" d="M121.627 78.3775L106.612 78.3085L106.599 81.0635L121.614 81.1325L121.627 78.3775Z" fill="black"/>
<path d="M165.656 95.2844C165.654 95.2729 165.782 95.2914 165.999 95.2039C166.203 95.1244 166.527 94.8754 166.564 94.4184C166.563 93.4874 166.56 92.1339 166.556 90.3964C166.556 89.5214 166.556 88.5504 166.555 87.4879C166.556 87.2219 166.556 86.9504 166.556 86.6734C166.563 86.3899 166.563 86.1264 166.392 85.9084C166.239 85.6919 165.976 85.5534 165.702 85.5524C165.402 85.5519 165.097 85.5514 164.787 85.5509C162.303 85.5459 159.477 85.5404 156.354 85.5344C143.847 85.4879 126.586 85.4239 107.522 85.3534C107.27 85.3514 107.024 85.4744 106.879 85.6789C106.717 85.8854 106.723 86.1289 106.727 86.4419C106.725 87.0344 106.722 87.6249 106.72 88.2139C106.715 89.3914 106.709 90.5609 106.704 91.7219C106.702 92.3024 106.699 92.8809 106.696 93.4569C106.706 93.7329 106.669 94.0634 106.72 94.2779C106.778 94.5124 106.956 94.7104 107.176 94.8044C107.291 94.8514 107.399 94.8674 107.537 94.8664L107.965 94.8689L108.817 94.8729C109.384 94.8759 109.948 94.8784 110.51 94.8814C115.007 94.9054 119.344 94.9284 123.476 94.9504C131.737 95.0004 139.177 95.0459 145.43 95.0839C151.67 95.1334 156.725 95.1729 160.23 95.2009C161.968 95.2209 163.322 95.2369 164.253 95.2479C164.705 95.2564 165.053 95.2634 165.299 95.2679C165.535 95.2734 165.656 95.2844 165.656 95.2844C165.656 95.2844 165.535 95.2939 165.299 95.2979C165.052 95.3004 164.705 95.3039 164.253 95.3084C163.322 95.3109 161.968 95.3139 160.229 95.3184C156.723 95.3134 151.67 95.3069 145.429 95.2984C139.176 95.2789 131.736 95.2554 123.475 95.2294C119.343 95.2129 115.006 95.1959 110.509 95.1784C109.947 95.1759 109.383 95.1739 108.816 95.1714L107.963 95.1679L107.536 95.1659C107.39 95.1689 107.209 95.1459 107.059 95.0809C106.754 94.9524 106.51 94.6789 106.429 94.3544C106.383 94.1894 106.393 94.0219 106.393 93.8874L106.394 93.4559C106.397 92.8794 106.399 92.3009 106.401 91.7204C106.406 90.5594 106.411 89.3899 106.415 88.2124C106.418 87.6239 106.42 87.0329 106.422 86.4404C106.427 86.2884 106.414 86.1559 106.437 85.9739C106.463 85.8034 106.529 85.6384 106.632 85.4994C106.832 85.2174 107.177 85.0449 107.523 85.0489C126.587 85.1539 143.848 85.2494 156.355 85.3189C159.478 85.3419 162.304 85.3624 164.788 85.3804C165.098 85.3829 165.403 85.3854 165.703 85.3879C166.03 85.3909 166.341 85.5589 166.52 85.8159C166.72 86.0679 166.718 86.4119 166.707 86.6734C166.704 86.9504 166.703 87.2224 166.701 87.4879C166.691 88.5504 166.682 89.5214 166.675 90.3964C166.654 92.1364 166.637 93.4914 166.626 94.4229C166.575 94.9099 166.225 95.1599 166.01 95.2324C165.782 95.3134 165.656 95.2844 165.656 95.2844Z" fill="#E0E0E0"/>
<path d="M138.108 89.0317L110.642 88.9054L110.63 91.4804L138.096 91.6067L138.108 89.0317Z" fill="#71B219"/>
<path opacity="0.2" d="M138.108 89.0317L110.642 88.9054L110.63 91.4804L138.096 91.6067L138.108 89.0317Z" fill="white"/>
<path d="M121.52 103.52L106.506 103.451L106.493 106.206L121.508 106.275L121.52 103.52Z" fill="#71B219"/>
<path opacity="0.1" d="M121.52 103.52L106.506 103.451L106.493 106.206L121.508 106.275L121.52 103.52Z" fill="black"/>
<path d="M165.271 120.425C165.27 120.415 165.393 120.425 165.617 120.359C165.829 120.29 166.17 120.114 166.356 119.698C166.456 119.492 166.466 119.243 166.457 118.958C166.456 118.674 166.455 118.365 166.454 118.03C166.453 117.358 166.451 116.585 166.449 115.716C166.449 114.844 166.449 113.876 166.449 112.817C166.449 112.552 166.449 112.282 166.449 112.006C166.461 111.727 166.428 111.468 166.278 111.235C166.138 111.006 165.91 110.825 165.644 110.743C165.383 110.661 165.07 110.705 164.762 110.693C162.286 110.688 159.47 110.682 156.357 110.677C143.894 110.631 126.693 110.567 107.695 110.496C107.167 110.483 106.68 110.914 106.629 111.436C106.611 111.991 106.62 112.605 106.614 113.184C106.609 114.357 106.603 115.522 106.598 116.679C106.596 117.258 106.593 117.834 106.591 118.409C106.6 118.695 106.56 118.995 106.628 119.224C106.694 119.465 106.848 119.681 107.054 119.822C107.268 119.966 107.5 120.02 107.78 120.009L108.629 120.013C109.194 120.016 109.757 120.019 110.317 120.022C114.798 120.045 119.12 120.068 123.237 120.09C131.47 120.14 138.884 120.186 145.115 120.224C151.334 120.273 156.37 120.313 159.864 120.34C161.596 120.361 162.945 120.376 163.874 120.387C164.324 120.396 164.67 120.403 164.917 120.407C165.151 120.414 165.271 120.425 165.271 120.425C165.271 120.425 165.15 120.434 164.915 120.438C164.669 120.441 164.322 120.444 163.872 120.448C162.944 120.451 161.595 120.454 159.862 120.459C156.368 120.454 151.332 120.447 145.112 120.439C138.882 120.419 131.467 120.396 123.235 120.37C119.117 120.354 114.795 120.337 110.314 120.319C109.754 120.317 109.192 120.314 108.627 120.312L107.777 120.309C107.492 120.324 107.141 120.255 106.883 120.07C106.619 119.889 106.421 119.613 106.336 119.303C106.249 118.976 106.301 118.691 106.288 118.407C106.29 117.833 106.292 117.256 106.294 116.678C106.299 115.521 106.304 114.355 106.309 113.182C106.316 112.588 106.304 112.024 106.326 111.399C106.391 110.727 107.017 110.174 107.695 110.191C126.693 110.296 143.894 110.391 156.357 110.46C159.47 110.483 162.286 110.504 164.761 110.522C165.067 110.538 165.375 110.489 165.691 110.586C165.996 110.681 166.254 110.89 166.412 111.152C166.579 111.408 166.615 111.736 166.599 112.005C166.596 112.281 166.595 112.552 166.593 112.817C166.584 113.876 166.574 114.844 166.567 115.715C166.558 116.584 166.55 117.358 166.543 118.03C166.539 118.364 166.536 118.673 166.532 118.957C166.537 119.236 166.521 119.512 166.411 119.722C166.205 120.156 165.845 120.327 165.624 120.388C165.393 120.447 165.271 120.425 165.271 120.425Z" fill="#E0E0E0"/>
<path d="M121.408 129.744L106.393 129.675L106.381 132.43L121.395 132.499L121.408 129.744Z" fill="#71B219"/>
<path opacity="0.1" d="M121.408 129.744L106.393 129.675L106.381 132.43L121.395 132.499L121.408 129.744Z" fill="black"/>
<path d="M165.16 146.647C165.159 146.636 165.283 146.647 165.506 146.582C165.718 146.512 166.059 146.337 166.245 145.92C166.345 145.714 166.355 145.465 166.346 145.18C166.345 144.896 166.344 144.587 166.343 144.252C166.342 143.58 166.34 142.807 166.339 141.938C166.338 141.066 166.338 140.098 166.338 139.039C166.338 138.775 166.338 138.504 166.338 138.227C166.35 137.948 166.317 137.69 166.168 137.457C166.027 137.228 165.799 137.046 165.533 136.965C165.272 136.883 164.96 136.927 164.651 136.915C162.176 136.91 159.359 136.904 156.247 136.898C143.783 136.852 126.582 136.788 107.584 136.718C107.056 136.705 106.569 137.136 106.518 137.658C106.501 138.213 106.509 138.827 106.503 139.406C106.498 140.579 106.493 141.744 106.488 142.901C106.485 143.48 106.483 144.056 106.48 144.631C106.49 144.917 106.449 145.216 106.517 145.445C106.583 145.687 106.737 145.903 106.943 146.044C107.157 146.188 107.389 146.242 107.669 146.231L108.518 146.235C109.083 146.238 109.646 146.24 110.206 146.243C114.686 146.267 119.008 146.29 123.126 146.312C131.358 146.362 138.773 146.407 145.003 146.446C151.223 146.495 156.259 146.535 159.752 146.562C161.485 146.583 162.835 146.599 163.762 146.61C164.213 146.618 164.559 146.625 164.805 146.63C165.039 146.636 165.16 146.647 165.16 146.647C165.16 146.647 165.039 146.656 164.805 146.66C164.558 146.663 164.212 146.666 163.762 146.67C162.834 146.673 161.484 146.676 159.751 146.681C156.258 146.676 151.222 146.669 145.002 146.661C138.771 146.641 131.357 146.618 123.124 146.592C119.007 146.576 114.685 146.559 110.204 146.542C109.644 146.539 109.081 146.537 108.516 146.534L107.667 146.531C107.381 146.546 107.03 146.477 106.772 146.292C106.508 146.111 106.31 145.835 106.225 145.525C106.139 145.198 106.19 144.913 106.178 144.629C106.18 144.055 106.182 143.478 106.185 142.9C106.189 141.743 106.194 140.577 106.199 139.404C106.206 138.81 106.194 138.246 106.216 137.622C106.28 136.95 106.907 136.397 107.585 136.414C126.583 136.519 143.783 136.614 156.247 136.683C159.359 136.706 162.176 136.727 164.651 136.745C164.957 136.761 165.265 136.712 165.581 136.809C165.886 136.904 166.143 137.113 166.302 137.375C166.469 137.631 166.505 137.959 166.489 138.228C166.486 138.504 166.484 138.775 166.482 139.04C166.473 140.099 166.464 141.067 166.457 141.938C166.448 142.807 166.44 143.58 166.433 144.253C166.429 144.587 166.425 144.896 166.421 145.18C166.426 145.459 166.41 145.735 166.3 145.945C166.095 146.379 165.734 146.55 165.514 146.611C165.283 146.669 165.16 146.647 165.16 146.647Z" fill="#E0E0E0"/>
<path d="M138.002 114.174L110.536 114.048L110.524 116.623L137.99 116.749L138.002 114.174Z" fill="#71B219"/>
<path opacity="0.2" d="M138.002 114.174L110.536 114.048L110.524 116.623L137.99 116.749L138.002 114.174Z" fill="white"/>
<path d="M111.827 143.153C112.491 143.156 113.031 142.585 113.034 141.878C113.038 141.171 112.503 140.595 111.839 140.592C111.176 140.589 110.636 141.16 110.632 141.867C110.629 142.574 111.164 143.15 111.827 143.153Z" fill="#71B219"/>
<path d="M115.548 143.17C116.212 143.173 116.752 142.602 116.755 141.895C116.759 141.188 116.224 140.612 115.56 140.609C114.897 140.606 114.357 141.176 114.353 141.884C114.35 142.591 114.885 143.167 115.548 143.17Z" fill="#71B219"/>
<path d="M119.269 143.187C119.932 143.19 120.472 142.62 120.476 141.912C120.479 141.205 119.944 140.629 119.281 140.626C118.618 140.623 118.077 141.194 118.074 141.901C118.07 142.608 118.606 143.184 119.269 143.187Z" fill="#71B219"/>
<path d="M122.989 143.204C123.652 143.207 124.193 142.636 124.196 141.929C124.199 141.222 123.664 140.646 123.001 140.643C122.338 140.64 121.798 141.211 121.795 141.918C121.792 142.625 122.326 143.201 122.989 143.204Z" fill="#71B219"/>
<path d="M126.704 143.227C127.368 143.23 127.908 142.659 127.911 141.952C127.914 141.244 127.379 140.669 126.716 140.666C126.053 140.663 125.512 141.234 125.509 141.941C125.506 142.648 126.041 143.224 126.704 143.227Z" fill="#71B219"/>
<path d="M130.425 143.244C131.088 143.247 131.629 142.676 131.632 141.969C131.635 141.261 131.1 140.686 130.436 140.683C129.773 140.68 129.233 141.251 129.23 141.958C129.227 142.665 129.762 143.241 130.425 143.244Z" fill="#71B219"/>
<path d="M134.146 143.261C134.809 143.264 135.35 142.693 135.353 141.986C135.356 141.278 134.821 140.702 134.157 140.699C133.494 140.696 132.954 141.267 132.951 141.975C132.948 142.682 133.483 143.258 134.146 143.261Z" fill="#71B219"/>
<path d="M137.867 143.278C138.53 143.281 139.07 142.71 139.073 142.002C139.076 141.295 138.541 140.719 137.878 140.716C137.215 140.713 136.675 141.284 136.672 141.992C136.669 142.699 137.204 143.275 137.867 143.278Z" fill="#71B219"/>
<path d="M141.593 143.289C142.256 143.292 142.797 142.722 142.8 142.014C142.803 141.307 142.268 140.731 141.605 140.728C140.942 140.725 140.401 141.296 140.398 142.003C140.395 142.71 140.93 143.286 141.593 143.289Z" fill="#71B219"/>
<g opacity="0.2">
<g opacity="0.2">
<path opacity="0.2" d="M111.827 143.153C112.491 143.156 113.031 142.585 113.034 141.878C113.038 141.171 112.503 140.595 111.839 140.592C111.176 140.589 110.636 141.16 110.632 141.867C110.629 142.574 111.164 143.15 111.827 143.153Z" fill="white"/>
</g>
<g opacity="0.2">
<path opacity="0.2" d="M115.548 143.17C116.212 143.173 116.752 142.602 116.755 141.895C116.759 141.188 116.224 140.612 115.56 140.609C114.897 140.606 114.357 141.176 114.353 141.884C114.35 142.591 114.885 143.167 115.548 143.17Z" fill="white"/>
</g>
<g opacity="0.2">
<path opacity="0.2" d="M119.269 143.187C119.932 143.19 120.472 142.62 120.476 141.912C120.479 141.205 119.944 140.629 119.281 140.626C118.618 140.623 118.077 141.194 118.074 141.901C118.07 142.608 118.606 143.184 119.269 143.187Z" fill="white"/>
</g>
<g opacity="0.2">
<path opacity="0.2" d="M122.989 143.204C123.652 143.207 124.193 142.636 124.196 141.929C124.199 141.222 123.664 140.646 123.001 140.643C122.338 140.64 121.798 141.211 121.795 141.918C121.792 142.625 122.326 143.201 122.989 143.204Z" fill="white"/>
</g>
<g opacity="0.2">
<path opacity="0.2" d="M126.704 143.227C127.368 143.23 127.908 142.659 127.911 141.952C127.914 141.244 127.379 140.669 126.716 140.666C126.053 140.663 125.512 141.234 125.509 141.941C125.506 142.648 126.041 143.224 126.704 143.227Z" fill="white"/>
</g>
<g opacity="0.2">
<path opacity="0.2" d="M130.425 143.244C131.088 143.247 131.629 142.676 131.632 141.969C131.635 141.261 131.1 140.686 130.436 140.683C129.773 140.68 129.233 141.251 129.23 141.958C129.227 142.665 129.762 143.241 130.425 143.244Z" fill="white"/>
</g>
<g opacity="0.2">
<path opacity="0.2" d="M134.146 143.261C134.809 143.264 135.35 142.693 135.353 141.986C135.356 141.278 134.821 140.702 134.157 140.699C133.494 140.696 132.954 141.267 132.951 141.975C132.948 142.682 133.483 143.258 134.146 143.261Z" fill="white"/>
</g>
<g opacity="0.2">
<path opacity="0.2" d="M137.867 143.278C138.53 143.281 139.07 142.71 139.073 142.002C139.076 141.295 138.541 140.719 137.878 140.716C137.215 140.713 136.675 141.284 136.672 141.992C136.669 142.699 137.204 143.275 137.867 143.278Z" fill="white"/>
</g>
<g opacity="0.2">
<path opacity="0.2" d="M141.593 143.289C142.256 143.292 142.797 142.722 142.8 142.014C142.803 141.307 142.268 140.731 141.605 140.728C140.942 140.725 140.401 141.296 140.398 142.003C140.395 142.71 140.93 143.286 141.593 143.289Z" fill="white"/>
</g>
</g>
<path d="M137.508 57.7319C138.294 57.4024 138.853 56.5919 138.857 55.6374C138.862 54.3869 137.916 53.3684 136.743 53.3629C135.571 53.3574 134.616 54.3669 134.611 55.6174C134.607 56.5809 135.169 57.4009 135.964 57.7314C132.696 58.2239 132.844 61.7749 132.844 61.7749L140.571 61.8104C140.571 61.8109 140.747 58.2209 137.508 57.7319Z" fill="#71B219"/>
<path opacity="0.1" d="M137.508 57.7319C138.294 57.4024 138.853 56.5919 138.857 55.6374C138.862 54.3869 137.916 53.3684 136.743 53.3629C135.571 53.3574 134.616 54.3669 134.611 55.6174C134.607 56.5809 135.169 57.4009 135.964 57.7314C132.696 58.2239 132.844 61.7749 132.844 61.7749L140.571 61.8104C140.571 61.8109 140.747 58.2209 137.508 57.7319Z" fill="black"/>
<path d="M150.05 67.4299L122.497 67.3029L122.511 64.0084L150.064 64.1359L150.05 67.4299Z" fill="#71B219"/>
<path opacity="0.2" d="M150.05 67.4299L122.497 67.3029L122.511 64.0084L150.064 64.1359L150.05 67.4299Z" fill="white"/>
<path d="M48.7782 81.1855C48.7782 81.191 48.6862 81.2015 48.5072 81.216C48.3142 81.23 48.0507 81.2495 47.7122 81.274C47.3612 81.28 46.9347 81.356 46.4312 81.445C46.1807 81.4955 45.9042 81.516 45.6217 81.5995C45.3377 81.6785 45.0362 81.762 44.7167 81.8505C43.4567 82.248 41.9392 82.8795 40.4117 83.986C38.8877 85.084 37.3632 86.6535 36.1752 88.7015C35.5507 89.708 35.0977 90.8705 34.6902 92.092C34.3592 93.336 34.0657 94.657 34.0437 96.049C33.9817 96.743 34.0517 97.4485 34.0812 98.1655C34.1002 98.524 34.1772 98.879 34.2227 99.24C34.2722 99.601 34.3247 99.9645 34.4272 100.321C34.7227 101.773 35.3137 103.195 36.0617 104.559C37.5567 107.296 40.0697 109.654 43.1727 111.021C44.7252 111.706 46.4417 112.075 48.1872 112.147C49.9347 112.257 51.7242 111.977 53.4217 111.393L53.9352 111.205L54.0032 111.18L54.0647 111.211C56.5772 112.486 59.0407 113.737 61.4282 114.949L61.2092 115.135C60.4227 112.695 59.6607 110.329 58.9292 108.059L58.9012 107.971L58.9662 107.906C60.8222 106.048 62.1152 103.79 62.8322 101.479C63.5507 99.16 63.6737 96.7995 63.3932 94.6355C63.1132 92.467 62.4037 90.4955 61.4587 88.836C60.5137 87.172 59.3392 85.82 58.1337 84.765C56.9137 83.717 55.6492 83.007 54.5162 82.4635C53.3552 81.978 52.3207 81.6665 51.4607 81.501C51.0307 81.4275 50.6487 81.3625 50.3152 81.306C49.9847 81.283 49.7032 81.263 49.4702 81.247C49.2527 81.23 49.0817 81.217 48.9527 81.207C48.8372 81.1975 48.7782 81.19 48.7782 81.1855C48.7782 81.181 48.8377 81.18 48.9542 81.182C49.0837 81.1855 49.2557 81.1905 49.4737 81.197C49.7082 81.2065 49.9912 81.218 50.3242 81.2315C50.6607 81.2815 51.0462 81.339 51.4802 81.4035C52.3492 81.555 53.3972 81.854 54.5757 82.331C55.7262 82.8665 57.0127 83.573 58.2562 84.624C59.4857 85.682 60.6857 87.044 61.6542 88.726C62.6227 90.4035 63.3537 92.402 63.6477 94.6035C63.9422 96.8 63.8267 99.2005 63.1022 101.563C62.3797 103.917 61.0687 106.222 59.1797 108.12L59.2167 107.968C59.9512 110.237 60.7172 112.601 61.5072 115.041L61.6227 115.397L61.2882 115.228C58.8997 114.017 56.4357 112.768 53.9227 111.494L54.0517 111.5L53.5272 111.692C51.7927 112.289 49.9617 112.575 48.1762 112.461C46.3927 112.387 44.6377 112.007 43.0522 111.305C39.8822 109.906 37.3262 107.493 35.8097 104.702C35.0507 103.311 34.4542 101.86 34.1577 100.383C34.0552 100.02 34.0022 99.65 33.9532 99.282C33.9077 98.9145 33.8307 98.553 33.8132 98.1885C33.7857 97.4595 33.7177 96.7425 33.7832 96.0375C33.8117 94.623 34.1147 93.2815 34.4582 92.0205C34.8777 90.7815 35.3442 89.605 35.9837 88.5875C37.2012 86.518 38.7577 84.9385 40.3102 83.8415C41.8657 82.7355 43.4072 82.1145 44.6832 81.7315C45.0062 81.6475 45.3117 81.5675 45.5992 81.493C45.8847 81.4135 46.1647 81.3975 46.4172 81.3515C46.9257 81.2715 47.3557 81.2055 47.7087 81.2095C48.0487 81.198 48.3137 81.1895 48.5077 81.183C48.6857 81.1795 48.7782 81.18 48.7782 81.1855Z" fill="#71B219"/>
<path d="M52.1072 94.8176H51.0282L48.6737 91.5361V89.3821C48.6737 89.3821 47.0062 89.2796 47.2022 92.0996C47.3987 94.9201 47.1862 94.2016 47.1862 94.2016C47.1862 94.2016 43.6452 94.2151 43.3507 94.5231C43.1367 94.7466 43.0397 98.2641 43.0027 100.172C42.9842 101.133 43.5732 102.026 44.4662 102.253C44.5932 102.285 44.7212 102.304 44.8472 102.304C45.7302 102.304 50.2432 101.586 50.2432 101.586H52.1072V94.8176Z" fill="#71B219"/>
<path d="M55.1963 94.2261L54.5328 101.606H52.6848V94.3746L55.1963 94.2261Z" fill="#71B219"/>
<path d="M77.2018 244.464V239.469L68.2513 239.409L68.1773 246.955L68.7323 246.996C71.2013 247.156 81.2968 247.388 82.9513 246.876C84.7958 246.305 77.2018 244.464 77.2018 244.464Z" fill="#71B219"/>
<path d="M75.6853 246.56C79.815 246.56 83.1628 246.492 83.1628 246.408C83.1628 246.324 79.815 246.255 75.6853 246.255C71.5556 246.255 68.2078 246.324 68.2078 246.408C68.2078 246.492 71.5556 246.56 75.6853 246.56Z" fill="#263238"/>
<path d="M77.3593 245.483C77.2858 245.444 77.3488 245.181 77.5413 244.921C77.7328 244.66 77.9668 244.521 78.0253 244.58C78.0853 244.64 77.9628 244.86 77.7863 245.101C77.6083 245.341 77.4343 245.523 77.3593 245.483Z" fill="#263238"/>
<path d="M77.9303 245.812C77.8528 245.783 77.8928 245.487 78.0688 245.176C78.2438 244.863 78.4768 244.676 78.5418 244.728C78.6088 244.78 78.4963 245.035 78.3338 245.325C78.1703 245.614 78.0098 245.843 77.9303 245.812Z" fill="#263238"/>
<path d="M70.9038 246.385C70.8688 246.41 70.7358 246.279 70.5423 246.059C70.3473 245.841 70.0923 245.533 69.7573 245.273C69.4248 245.013 69.0593 244.883 68.7888 244.85C68.5168 244.813 68.3383 244.855 68.3228 244.811C68.3073 244.779 68.4738 244.654 68.7963 244.635C69.1143 244.613 69.5633 244.733 69.9428 245.031C70.3208 245.326 70.5618 245.678 70.7158 245.932C70.8683 246.189 70.9378 246.362 70.9038 246.385Z" fill="#263238"/>
<path d="M77.3863 244.544C77.4303 244.615 77.2763 244.788 77.0213 244.882C76.7663 244.976 76.5363 244.943 76.5243 244.861C76.5108 244.777 76.6923 244.68 76.9163 244.597C77.1403 244.515 77.3423 244.472 77.3863 244.544Z" fill="#263238"/>
<path d="M77.2463 244.061C77.2543 244.145 77.0158 244.217 76.7138 244.221C76.4113 244.225 76.1708 244.16 76.1768 244.076C76.1823 243.992 76.4208 243.921 76.7093 243.917C76.9973 243.913 77.2378 243.978 77.2463 244.061Z" fill="#263238"/>
<path d="M99.2428 244.464L99.2433 239.469L90.2923 239.409L90.2183 246.878L90.7733 246.919C93.2423 247.079 103.338 247.388 104.992 246.876C106.837 246.305 99.2428 244.464 99.2428 244.464Z" fill="#71B219"/>
<path d="M97.7258 246.571C101.855 246.571 105.203 246.503 105.203 246.419C105.203 246.335 101.855 246.267 97.7258 246.267C93.5961 246.267 90.2483 246.335 90.2483 246.419C90.2483 246.503 93.5961 246.571 97.7258 246.571Z" fill="#263238"/>
<path d="M99.4002 245.483C99.3267 245.444 99.3897 245.181 99.5822 244.921C99.7737 244.66 100.008 244.521 100.066 244.58C100.126 244.64 100.004 244.86 99.8272 245.101C99.6492 245.341 99.4752 245.523 99.4002 245.483Z" fill="#263238"/>
<path d="M99.9713 245.812C99.8933 245.783 99.9338 245.487 100.11 245.176C100.285 244.863 100.518 244.676 100.583 244.728C100.65 244.78 100.537 245.035 100.375 245.325C100.211 245.614 100.051 245.843 99.9713 245.812Z" fill="#263238"/>
<path d="M92.9448 246.385C92.9098 246.41 92.7768 246.279 92.5833 246.059C92.3888 245.841 92.1333 245.533 91.7983 245.273C91.4663 245.013 91.1003 244.883 90.8298 244.85C90.5578 244.813 90.3793 244.855 90.3638 244.811C90.3483 244.779 90.5143 244.654 90.8368 244.635C91.1548 244.613 91.6038 244.733 91.9838 245.031C92.3618 245.326 92.6028 245.678 92.7568 245.932C92.9093 246.189 92.9788 246.362 92.9448 246.385Z" fill="#263238"/>
<path d="M99.4273 244.544C99.4708 244.615 99.3173 244.788 99.0623 244.882C98.8068 244.976 98.5773 244.943 98.5653 244.861C98.5523 244.777 98.7333 244.68 98.9573 244.597C99.1813 244.515 99.3833 244.472 99.4273 244.544Z" fill="#263238"/>
<path d="M99.2868 244.061C99.2948 244.145 99.0563 244.217 98.7543 244.221C98.4523 244.225 98.2118 244.16 98.2173 244.076C98.2233 243.992 98.4618 243.921 98.7503 243.917C99.0388 243.913 99.2788 243.978 99.2868 244.061Z" fill="#263238"/>
<path d="M132.216 96.2295C131.982 95.989 131.408 96.1025 131.408 96.1025C131.408 96.1025 131.508 95.4205 131.402 95.09C131.297 94.76 130.561 94.8235 130.561 94.8235C130.561 94.8235 130.515 94.506 130.58 93.9935C130.596 93.865 130.525 93.77 130.409 93.7C130.06 93.489 129.309 93.4995 129.309 93.4995C128.858 93.1775 130.682 90.627 131.358 89.8105C132.026 89.004 131.914 88.358 131.31 88.359C130.899 88.36 128.77 90.811 128.12 91.6345C127.471 92.457 125.729 94.7465 125.67 92.9195C125.61 91.0925 124.876 89.711 124.418 89.475C123.959 89.2395 123.464 89.792 123.718 90.2995C123.923 90.7095 124.053 91.4995 124.126 92.0965C124.187 92.589 124.167 93.089 124.059 93.573C123.754 94.9415 123.427 95.83 123.273 96.21L123.228 96.1845C123.228 96.1845 110.484 108.404 109.566 109.276C108.739 110.061 92.1803 108.348 88.8628 107.996C87.9563 107.894 86.6133 107.712 85.4498 107.763C84.0108 107.826 83.7548 108.03 82.3143 108.05C77.9043 108.109 74.2288 108.538 71.4938 109.001C68.1868 109.561 65.4758 111.914 64.4523 115.109C61.1043 125.558 53.5293 150.296 52.1793 164.193C51.1163 166.192 49.9283 168.527 49.4453 169.841C48.5073 172.395 48.7348 172.482 49.0508 172.541C49.8993 172.698 50.8708 168.111 51.2338 169.218C51.5968 170.325 49.3933 174.69 50.2873 174.818C51.4528 174.984 52.3813 170.164 52.4903 169.761C52.5958 169.371 53.1838 169.502 53.0663 169.86C52.8973 170.375 51.2543 175.822 52.3973 175.996C53.0308 176.093 53.0988 174.939 53.0988 174.939C53.0988 174.939 54.2603 169.73 54.7968 169.83C55.3418 169.932 54.7628 173.014 54.4938 174.039C54.2283 175.052 54.6023 175.59 55.1488 175.336C55.5213 175.161 56.4183 172.04 56.6608 171.021C56.9033 170.001 57.5168 167.191 58.3413 168.822C59.1653 170.454 60.4133 171.397 60.9288 171.418C61.4438 171.438 61.6603 170.728 61.2158 170.375C60.8568 170.09 60.4058 169.428 60.0873 168.917C59.8248 168.496 59.6318 168.035 59.5258 167.55C59.1158 165.682 59.1188 164.596 59.1188 164.596L59.0238 163.995C60.3313 157.519 64.0998 138.518 69.5133 126.379L71.7423 130.966L72.7098 134.362L66.7693 149.039L92.1153 148.705L88.3368 134.145L92.9278 118.963L92.9273 118.962C97.8958 119.073 110.657 119.258 112.801 118.3C115.475 117.105 129.311 99.663 129.311 99.663H129.311C130.245 98.919 131.196 98.118 131.897 97.419C131.898 97.418 132.722 96.7505 132.216 96.2295Z" fill="#FFBE9D"/>
<path d="M65.6663 138.233C66.4003 135.723 70.1788 123.312 70.1788 123.312C70.1788 123.312 72.0333 133.43 71.5458 134.649C70.9843 136.053 69.9523 137.66 69.9523 137.66C65.6668 144.186 66.2293 147.448 66.2293 147.448L92.1168 146.659C92.1798 143.038 90.0368 134.621 89.5888 133.28C89.1403 131.939 90.6268 127.538 90.6268 127.538C90.6268 127.538 93.5523 124.567 93.4393 123.038C93.2108 119.957 92.9293 118.962 92.9293 118.962L108.681 119.542L108.186 108.854L85.5433 106.588C84.7598 108.818 77.6293 107.725 77.6293 107.725C69.9313 107.978 69.4653 109.394 66.2553 111.879C63.0453 114.365 57.7588 135.711 57.7588 135.711L65.6663 138.233Z" fill="#71B219"/>
<path d="M80.9763 135.708C80.9758 135.748 80.4548 135.782 79.6118 135.777C78.7693 135.772 77.6048 135.719 76.3248 135.591C75.0443 135.461 73.8933 135.281 73.0658 135.118C72.2388 134.956 71.7353 134.819 71.7428 134.779C71.7508 134.737 72.2678 134.799 73.1003 134.906C73.9328 135.014 75.0818 135.16 76.3548 135.288C77.6273 135.416 78.7823 135.502 79.6198 135.562C80.4578 135.622 80.9768 135.664 80.9763 135.708Z" fill="#263238"/>
<path d="M82.7487 133.505C82.7597 133.542 82.2257 133.745 81.3352 133.987C80.4457 134.228 79.1957 134.495 77.7967 134.662C76.3972 134.828 75.1193 134.862 74.1978 134.835C73.2758 134.809 72.7092 134.736 72.7112 134.698C72.7132 134.653 73.2817 134.649 74.1972 134.62C75.1127 134.592 76.3747 134.524 77.7612 134.36C79.1462 134.195 80.3898 133.965 81.2863 133.778C82.1823 133.592 82.7362 133.462 82.7487 133.505Z" fill="#263238"/>
<path d="M91.4567 123.685C91.4972 123.694 91.4302 124.198 91.2797 125.006C91.1292 125.814 90.8922 126.923 90.5942 128.14C90.2952 129.357 89.9922 130.451 89.7522 131.236C89.5122 132.021 89.3382 132.5 89.2982 132.488C89.2572 132.477 89.3582 131.978 89.5447 131.18C89.7652 130.269 90.0192 129.222 90.2992 128.067C90.5852 126.914 90.8447 125.87 91.0702 124.959C91.2737 124.165 91.4152 123.676 91.4567 123.685Z" fill="#263238"/>
<path d="M61.9492 135.81C64.1294 136.405 65.9147 136.821 65.9369 136.74C65.9591 136.658 64.2097 136.11 62.0295 135.515C59.8493 134.921 58.064 134.504 58.0418 134.586C58.0196 134.667 59.769 135.215 61.9492 135.81Z" fill="#263238"/>
<path d="M93.2138 118.824C93.2138 118.838 92.9743 118.863 92.5438 118.82C92.1158 118.776 91.4893 118.677 90.7633 118.396C90.0373 118.124 89.2113 117.669 88.4403 116.981C87.6688 116.296 86.9798 115.354 86.5398 114.245C86.0933 113.137 85.9468 111.983 86.0168 110.954C86.0848 109.928 86.3563 109 86.8158 108.35C87.2708 107.692 87.8733 107.373 88.2933 107.262C88.5058 107.206 88.6773 107.192 88.7918 107.195C88.9068 107.198 88.9658 107.211 88.9658 107.22C88.9673 107.249 88.7238 107.235 88.3288 107.375C87.9413 107.514 87.3958 107.841 86.9943 108.47C86.1993 109.719 85.9778 112 86.8223 114.132C87.2458 115.198 87.8968 116.104 88.6288 116.774C89.3608 117.447 90.1473 117.907 90.8433 118.196C92.2463 118.778 93.2243 118.759 93.2138 118.824Z" fill="#263238"/>
<path d="M106.68 113.946C106.674 116.917 106.737 119.326 106.821 119.326C106.905 119.326 106.978 116.918 106.984 113.947C106.99 110.975 106.926 108.566 106.842 108.566C106.758 108.566 106.686 110.975 106.68 113.946Z" fill="#263238"/>
<path d="M85.4037 107.238C85.4677 105.935 85.6042 104.463 85.6042 104.463C85.6042 104.463 88.8257 104.108 89.0212 100.78C89.2167 97.4516 89.0212 89.7771 89.0212 89.7771L83.1532 86.7891L76.6982 91.8831L77.6762 108.523L83.6157 108.901C84.5517 108.96 85.3557 108.214 85.4037 107.238Z" fill="#FFBE9D"/>
<path d="M85.9843 98.1465C85.9938 98.149 85.9938 98.2085 85.9333 98.2895C85.8738 98.3675 85.7438 98.4565 85.5628 98.453C85.1888 98.435 84.8288 98.0215 84.6963 97.517C84.6298 97.261 84.6303 97.0005 84.6803 96.777C84.7203 96.5565 84.8473 96.3355 85.0308 96.2755C85.1183 96.243 85.2093 96.2465 85.2788 96.281C85.3468 96.315 85.3888 96.3675 85.4103 96.415C85.4538 96.514 85.4198 96.5745 85.4118 96.5695C85.3983 96.5685 85.4018 96.514 85.3533 96.452C85.3073 96.388 85.1978 96.3305 85.0763 96.3935C84.9528 96.4495 84.8678 96.6075 84.8363 96.8105C84.7998 97.0115 84.8043 97.242 84.8633 97.47C84.9798 97.922 85.2933 98.292 85.5723 98.3255C85.7103 98.343 85.8248 98.29 85.8863 98.2395C85.9493 98.1885 85.9723 98.1415 85.9843 98.1465Z" fill="#EB996E"/>
<path d="M91.0223 87.98C90.5738 86.4475 88.9453 85.687 87.4613 85.2665C85.2038 84.627 82.7578 84.3435 80.5523 85.1555C78.3463 85.9675 75.6938 87.396 75.6943 89.8335C74.3928 89.7265 73.6488 90.867 73.1318 92.2805C72.8263 93.115 72.6258 94.045 72.5783 94.9655L72.5568 94.9585C72.3893 98.148 71.5008 102.542 69.4328 104.901C68.2908 106.204 66.6463 107.104 65.9813 108.726C65.4028 110.136 65.7023 111.802 65.1553 113.225C64.6728 114.482 63.6033 115.374 62.8373 116.467C61.1678 118.847 61.0543 122.211 62.2808 124.868C63.5073 127.525 65.9378 129.47 68.6358 130.36C71.3338 131.251 74.2728 131.153 77.0188 130.438C79.0458 129.91 81.0183 129.037 82.6338 127.656C84.2493 126.276 85.4883 124.356 85.8583 122.214C86.2698 119.829 85.6018 117.407 85.1108 115.038C83.5578 107.544 84.0013 107.155 85.9613 100.204C86.0053 100.082 86.0328 99.9535 86.0668 99.8275C86.0928 99.7355 86.1173 99.647 86.1438 99.5525L86.1398 99.551C86.1943 99.279 86.2303 99.002 86.2318 98.7195C85.6643 98.943 84.9788 98.7945 84.5438 98.3545C84.1088 97.914 83.9463 97.2045 84.1448 96.607C84.3728 95.9195 85.0033 95.4605 85.6508 95.188C86.2983 94.9155 86.9948 94.7805 87.6303 94.4785C88.9783 93.837 89.9128 92.5055 90.5488 91.111C90.9928 90.1345 91.3253 89.015 91.0223 87.98Z" fill="#263238"/>
<path d="M86.2147 98.2891C86.2347 98.2806 86.3487 98.4976 86.5222 98.8661C86.6957 99.2346 86.9282 99.7551 87.1862 100.353L87.2352 100.466L87.1117 100.476C86.9172 100.493 86.7202 100.51 86.5177 100.528C86.1102 100.554 85.7707 100.603 85.3757 100.599C85.3127 100.588 85.2442 100.53 85.2247 100.466C85.2037 100.403 85.2097 100.35 85.2157 100.304C85.2327 100.212 85.2527 100.145 85.2707 100.067L85.3737 99.6536C85.5027 99.1491 85.5947 98.8401 85.6192 98.8456C85.6437 98.8511 85.5962 99.1706 85.4992 99.6816L85.4177 100.099C85.3877 100.24 85.3367 100.451 85.4127 100.435C85.7032 100.423 86.1177 100.374 86.5017 100.346C86.7047 100.33 86.9012 100.314 87.0962 100.298L87.0217 100.422C86.7717 99.8206 86.5597 99.2916 86.4152 98.9106C86.2712 98.5306 86.1942 98.2976 86.2147 98.2891Z" fill="#71B219"/>
<path d="M66.2288 147.447L92.1163 146.658L103.375 190.643L101.302 241.098H87.5998L89.2978 191.718L79.2838 161.098L80.8268 243.055L66.9933 243.259L65.5358 166.222C65.4753 164.081 64.7703 159.25 65.0328 157.127L66.2288 147.447Z" fill="#263238"/>
<path d="M82.7318 161.72C82.7263 161.76 82.2408 161.736 81.4623 161.644C80.6838 161.552 79.6118 161.388 78.4383 161.153C77.2648 160.916 76.2128 160.653 75.4593 160.437C74.7058 160.22 74.2483 160.055 74.2593 160.015C74.2823 159.931 76.1618 160.386 78.4983 160.855C80.8328 161.327 82.7428 161.633 82.7318 161.72Z" fill="#455A64"/>
<path d="M94.2487 238.484C98.075 238.484 101.177 238.416 101.177 238.331C101.177 238.247 98.075 238.179 94.2487 238.179C90.4225 238.179 87.3207 238.247 87.3207 238.331C87.3207 238.416 90.4225 238.484 94.2487 238.484Z" fill="#455A64"/>
<path d="M73.9813 241.078C77.6935 241.078 80.7028 241.01 80.7028 240.926C80.7028 240.842 77.6935 240.774 73.9813 240.774C70.2691 240.774 67.2598 240.842 67.2598 240.926C67.2598 241.01 70.2691 241.078 73.9813 241.078Z" fill="#455A64"/>
<path d="M78.9208 240.716C78.8368 240.717 78.4733 222.808 78.1083 200.721C77.7433 178.626 77.5158 160.719 77.5998 160.717C77.6838 160.716 78.0478 178.621 78.4128 200.716C78.7768 222.803 79.0048 240.714 78.9208 240.716Z" fill="#455A64"/>
<path d="M99.3373 238.332C99.3323 238.332 99.3303 238.251 99.3313 238.093C99.3343 237.921 99.3388 237.689 99.3443 237.394C99.3623 236.763 99.3883 235.86 99.4223 234.705C99.5038 232.355 99.6208 228.982 99.7653 224.82C100.085 216.461 100.526 204.94 101.012 192.213C101.017 192.096 101.022 191.978 101.026 191.87L101.03 191.914C97.9623 179.628 95.1888 168.524 93.1783 160.472C92.1918 156.462 91.3923 153.212 90.8353 150.948C90.5683 149.835 90.3593 148.965 90.2138 148.356C90.1483 148.071 90.0973 147.847 90.0598 147.681C90.0263 147.528 90.0123 147.449 90.0173 147.448C90.0223 147.447 90.0468 147.524 90.0898 147.674C90.1348 147.838 90.1953 148.06 90.2733 148.342C90.4323 148.947 90.6598 149.813 90.9503 150.92C91.5293 153.178 92.3603 156.419 93.3863 160.42C95.4193 168.466 98.2233 179.563 101.325 191.84L101.331 191.861L101.33 191.883C101.325 191.991 101.321 192.108 101.316 192.226C100.795 204.95 100.323 216.47 99.9803 224.829C99.7953 228.989 99.6453 232.36 99.5408 234.71C99.4828 235.863 99.4373 236.765 99.4058 237.396C99.3878 237.691 99.3738 237.923 99.3633 238.094C99.3508 238.252 99.3423 238.332 99.3373 238.332Z" fill="#455A64"/>
<path d="M94.8713 190.843C94.8858 190.926 93.5298 191.228 91.8443 191.517C90.5853 191.734 89.4983 191.882 89.0233 191.909L89.0223 191.79C89.1798 191.834 89.2648 191.867 89.2613 191.888C89.2583 191.909 89.1668 191.916 89.0038 191.909L88.6498 191.893L89.0028 191.79C89.4593 191.657 90.5338 191.434 91.7923 191.218C93.4783 190.928 94.8568 190.76 94.8713 190.843Z" fill="#455A64"/>
<path d="M94.6093 192.522C94.5978 192.606 93.3813 192.513 91.8838 192.397C90.3858 192.279 89.1698 192.183 89.1718 192.098C89.1733 192.015 90.4003 191.975 91.9073 192.094C93.4143 192.21 94.6203 192.44 94.6093 192.522Z" fill="#455A64"/>
<path opacity="0.2" d="M66.1138 148.377C66.7398 149.258 67.6323 149.567 68.6698 149.737C69.7068 149.907 70.7653 149.793 71.8093 149.677C78.4913 148.936 85.5718 148.252 92.1163 146.658C83.6453 147.133 74.6998 146.972 66.2288 147.447C66.2288 147.447 66.1568 148.03 66.1398 148.17" fill="black"/>
<g opacity="0.2">
<path opacity="0.2" d="M74.8453 160.318L79.6178 178.844L79.2838 161.098L74.8453 160.318Z" fill="black"/>
</g>
</g>
<defs>
<clipPath id="clip0">
<rect width="249.999" height="250" fill="white" transform="translate(0.000244141)"/>
</clipPath>
</defs>
</svg>
